<?xml version="1.0" encoding="UTF-8"?><svg id="OBJECTS" xmlns="http://www.w3.org/2000/svg" viewBox="0 0 239.11 111.41"><defs><style>.cls-1{fill:#ad4379;}.cls-1,.cls-2,.cls-3,.cls-4{stroke-width:0px;}.cls-2{fill:#622363;}.cls-3{fill:#ffd489;}.cls-5{fill:#236687;font-family:ArialRoundedMTBold, 'Arial Rounded MT Bold';font-size:36.67px;}.cls-6{letter-spacing:-.04em;}.cls-4{fill:#e8b1d1;}.cls-7{fill:#864d89;font-family:NewsGothicBT-Bold, 'NewsGoth BT';font-size:10px;font-weight:700;letter-spacing:.6em;}</style></defs><path class="cls-3" d="m168.78,37.4c.68-11.02-6.3-21.49-17.41-24.83-12.94-3.89-26.56,3.37-30.43,16.21-3.86,12.85,3.49,26.42,16.43,30.31,10.29,3.1,21.01-.87,26.91-9.08,1.03.63,2.25.96,3.45.9,1.96-.09,3.85-1.19,4.9-2.85.48-.76.78-1.62,1.01-2.49.2-.75.34-1.52.33-2.3-.03-2.85-2.39-5.47-5.2-5.87Z"/><path class="cls-1" d="m154.53,36.29c.25.07.77-1.11,1.17-2.63.39-1.52.51-2.8.26-2.86-.25-.06-.77,1.11-1.17,2.63-.39,1.52-.51,2.8-.26,2.86Z"/><path class="cls-1" d="m136,27.66c.25.07.79-1.02,1.36-2.39.56-1.37.96-2.53.73-2.65-.22-.12-1,.87-1.59,2.3-.59,1.42-.74,2.68-.5,2.75Z"/><path class="cls-1" d="m144.22,32.59c.12-.06-.1-.69-.45-1.67-.17-.49-.37-1.08-.57-1.74-.21-.61-.29-1.39.07-1.57.16-.11.48-.13.8-.06.32.07.66.18.95.3.6.25,1.09.58,1.48.89.77.64,1.14,1.19,1.26,1.12.1-.04-.06-.74-.8-1.6-.38-.42-.9-.86-1.58-1.2-.34-.17-.7-.31-1.12-.41-.41-.09-.96-.15-1.49.17-.26.16-.45.42-.55.68-.1.27-.12.52-.11.75.02.46.15.86.28,1.2.25.67.53,1.25.78,1.73.51.95.94,1.47,1.05,1.41Z"/><path class="cls-1" d="m149.66,33.08c-.13-.06-.43.45-1.05,1.1-.61.64-1.6,1.43-2.88,1.64-1.26.2-2.44-.32-3.07-.87-.67-.55-.88-1.1-1.02-1.06-.1.01-.12.71.55,1.52.64.79,2.05,1.58,3.69,1.32.79-.13,1.49-.47,2.03-.87.54-.4.94-.86,1.22-1.28.55-.84.64-1.47.53-1.51Z"/><path class="cls-2" d="m151.37,12.57c-7.71-2.32-15.66-.68-21.65,3.74,3.08,1.86,6.92,2.63,10.58,2.94,5.02.43,10.2.21,14.92-1.56.72-.27,1.43-.59,2.12-.94-.43,3.33.05,6.82,1.13,10.03,1.05,3.15,2.78,6.27,5.66,7.93,1.43.83,3.06,1.2,4.71,1.18,0-10.46-6.86-20.14-17.46-23.33Z"/><path class="cls-2" d="m163.27,5.52c-.05.06.28.31.64.92.35.59.73,1.6.5,2.79-.12.58-.41,1.18-.91,1.66-.49.48-1.17.86-1.93.99-.75.13-1.61,0-2.25-.45-.31-.23-.54-.53-.61-.88-.08-.36,0-.72.22-.94.22-.23.61-.34,1-.31.38.02.74.19,1.05.42.61.49.96,1.29,1.02,2.04.06.75-.19,1.49-.56,2.08-.37.6-.86,1.08-1.36,1.45-.99.75-2.02.97-2.69.89-.68-.09-.98-.4-1.03-.34-.02.02.03.12.17.26.14.15.41.32.79.43.76.21,1.98.07,3.14-.7.58-.38,1.16-.88,1.63-1.57.47-.68.82-1.57.77-2.56-.05-.96-.45-1.99-1.3-2.7-.43-.34-.97-.6-1.56-.64-.58-.04-1.24.1-1.72.58-.5.49-.61,1.22-.47,1.8.13.6.54,1.11.99,1.42.92.63,2.01.74,2.94.55.94-.19,1.75-.68,2.33-1.3.59-.61.91-1.39,1.01-2.09.18-1.43-.37-2.52-.85-3.1-.49-.6-.91-.75-.93-.71Z"/><path class="cls-1" d="m171.16,40.27c0-.12-.64-.31-1.76-.34-.56,0-1.26.06-1.98.39-.72.33-1.38.91-1.9,1.6-1.04,1.37-1.56,2.89-1.63,4.03-.08,1.14.21,1.8.32,1.78.14-.02.1-.69.33-1.68.22-.99.78-2.31,1.72-3.56.46-.61.99-1.1,1.54-1.4.55-.3,1.14-.42,1.65-.5,1.02-.13,1.71-.17,1.71-.31Z"/><path class="cls-1" d="m166.71,47.82c.07.09.49-.06.96-.59.46-.52.91-1.46.84-2.57-.07-1.11-.64-1.99-1.15-2.45-.52-.47-.96-.56-1.02-.46-.07.12.2.4.52.89.32.49.67,1.22.72,2.07.05.85-.2,1.62-.46,2.15-.25.53-.49.85-.41.95Z"/><path class="cls-4" d="m124.2,30.96c-3.86-12.85-17.49-20.11-30.43-16.21-11.11,3.34-18.09,13.81-17.41,24.83-2.81.4-5.17,3.02-5.2,5.87,0,.78.13,1.55.33,2.3.23.87.53,1.73,1.01,2.49,1.05,1.66,2.94,2.76,4.9,2.85,1.21.05,2.42-.28,3.45-.9,5.9,8.21,16.62,12.17,26.91,9.08,12.94-3.89,20.3-17.46,16.43-30.31Z"/><path class="cls-2" d="m98.96,14.56c-1.57-2.96-2.25-6.4-1.92-9.73.11-1.13.48-2.43,1.53-2.85.55-.22,1.19-.13,1.75.05,1.56.5,2.87,1.72,3.48,3.24.61-.93,1.25-1.88,2.16-2.5.92-.63,2.2-.85,3.13-.26,1.4.89,1.29,3.01.57,4.5.76-.57,1.55-1.15,2.47-1.39.92-.24,2.01-.07,2.61.66.66.81.54,1.99.26,2.99-.92,3.27-3.26,6.12-6.29,7.67"/><path class="cls-2" d="m77.69,33.86c-3.15,1.14-6.65,1.33-9.91.53-1.1-.27-2.34-.81-2.6-1.92-.14-.58.03-1.19.29-1.73.71-1.48,2.11-2.6,3.7-2.99-.83-.74-1.68-1.5-2.17-2.49-.49-1-.54-2.3.19-3.14,1.08-1.26,3.16-.85,4.54.07-.45-.83-.92-1.69-1.03-2.64-.11-.94.21-2,1.02-2.5.89-.54,2.05-.26,3,.16,3.11,1.37,5.6,4.09,6.71,7.3"/><path class="cls-3" d="m99.81,14.94c.39-2.15,2.65-3.79,4.82-3.47,2.17.32,3.87,2.53,3.63,4.7"/><path class="cls-3" d="m78.18,33.08c-2.08-.69-3.38-3.16-2.76-5.26s3.04-3.48,5.16-2.94"/><path class="cls-2" d="m93.77,14.75c-10.18,3.06-16.9,12.12-17.43,22.1,4.08-1.54,7.63-4.5,9.81-8.29,1.65-2.86,2.5-6.16,2.51-9.47,5.43,2.05,11.34,2.83,17.1,2.17,3.32-.38,6.62-1.23,9.53-2.86-5.97-4.36-13.87-5.96-21.53-3.66Z"/><path class="cls-1" d="m90.61,38.48c.25-.06.13-1.35-.26-2.86-.39-1.52-.92-2.69-1.17-2.63-.25.06-.13,1.35.26,2.86.39,1.52.92,2.69,1.17,2.63Z"/><path class="cls-1" d="m109.14,29.84c.24-.07.09-1.33-.5-2.75-.59-1.42-1.37-2.42-1.59-2.3-.23.12.16,1.28.73,2.65.57,1.37,1.11,2.47,1.36,2.39Z"/><path class="cls-1" d="m100.92,34.77c.11.06.54-.46,1.05-1.41.26-.48.53-1.06.78-1.73.13-.34.26-.74.28-1.2,0-.23,0-.49-.11-.75-.1-.27-.29-.52-.55-.68-.54-.33-1.08-.26-1.49-.17-.42.1-.78.24-1.12.41-.68.34-1.2.78-1.58,1.2-.75.85-.91,1.55-.8,1.6.12.07.49-.49,1.26-1.12.39-.31.88-.65,1.48-.89.29-.12.63-.23.95-.3.32-.06.64-.05.8.06.36.18.28.96.07,1.57-.2.66-.4,1.25-.57,1.74-.34.99-.57,1.61-.45,1.67Z"/><path class="cls-1" d="m105.37,32.82c-.15-.02-.29.72-.89,1.7-.57.97-1.73,2.19-3.37,2.56-.8.17-1.62.09-2.31-.13-.7-.23-1.28-.57-1.7-.94-.86-.74-1.11-1.46-1.26-1.41-.06.02-.07.22.03.56.09.35.33.82.76,1.31.43.49,1.07.97,1.88,1.28.81.31,1.8.45,2.8.23.99-.23,1.84-.74,2.46-1.33.63-.59,1.04-1.25,1.29-1.84.51-1.19.41-2,.31-2Z"/><path class="cls-1" d="m81.84,48.53c.11,0,.3-.7.03-1.82-.26-1.1-1.09-2.6-2.66-3.51-1.57-.9-3.3-.87-4.37-.54-1.11.32-1.62.84-1.56.93.07.13.68-.16,1.69-.29,1-.14,2.46-.05,3.77.7,1.31.76,2.11,1.98,2.5,2.91.4.94.46,1.61.6,1.61Z"/><path class="cls-1" d="m78.41,48.7c.1-.09-.02-.39-.12-.84-.11-.45-.17-1.07,0-1.71.17-.63.54-1.14.85-1.48.31-.34.57-.54.52-.67-.04-.11-.41-.14-.92.14-.5.26-1.12.88-1.35,1.77-.23.89,0,1.73.3,2.21.31.49.64.66.73.58Z"/><text class="cls-5" transform="translate(3.88 90.26)"><tspan x="0" y="0">Criança </tspan><tspan class="cls-6" x="149.82" y="0">F</tspan><tspan x="170.57" y="0">eliz</tspan></text><text class="cls-7" transform="translate(19.22 108.13)"><tspan x="0" y="0">CRECHE E BERÇÁRIO</tspan></text></svg>